<?xml version="1.0" encoding="UTF-8" standalone="no"?>
<!-- Created with Inkscape (http://www.inkscape.org/) -->

<svg
   version="1.1"
   id="svg1"
   width="700.15997"
   height="500.16"
   viewBox="0 0 700.15997 500.16"
   sodipodi:docname="loss_deeprfsoc.pdf"
   xmlns:inkscape="http://www.inkscape.org/namespaces/inkscape"
   xmlns:sodipodi="http://sodipodi.sourceforge.net/DTD/sodipodi-0.dtd"
   xmlns="http://www.w3.org/2000/svg"
   xmlns:svg="http://www.w3.org/2000/svg">
  <defs
     id="defs1">
    <clipPath
       clipPathUnits="userSpaceOnUse"
       id="clipPath2">
      <path
         d="M 0,0 H 2187.5 V 1562.5 H 0 Z"
         transform="scale(0.31999999)"
         clip-rule="evenodd"
         id="path2" />
    </clipPath>
    <clipPath
       clipPathUnits="userSpaceOnUse"
       id="clipPath4">
      <path
         d="M 0,0 H 2187.5 V 1562.5 H 0 Z"
         transform="scale(0.31999999)"
         clip-rule="evenodd"
         id="path4" />
    </clipPath>
    <clipPath
       clipPathUnits="userSpaceOnUse"
       id="clipPath6">
      <path
         d="M 0,0 H 2187.5 V 1562.5 H 0 Z"
         transform="matrix(0.31999999,0,0,0.31999999,-245.21999,0)"
         clip-rule="evenodd"
         id="path6" />
    </clipPath>
    <clipPath
       clipPathUnits="userSpaceOnUse"
       id="clipPath8">
      <path
         d="M 0,0 H 2187.5 V 1562.5 H 0 Z"
         transform="matrix(0.31999999,0,0,0.31999999,-391.08998,0)"
         clip-rule="evenodd"
         id="path8" />
    </clipPath>
    <clipPath
       clipPathUnits="userSpaceOnUse"
       id="clipPath10">
      <path
         d="M 0,0 H 2187.5 V 1562.5 H 0 Z"
         transform="matrix(0.31999999,0,0,0.31999999,-536.96001,0)"
         clip-rule="evenodd"
         id="path10" />
    </clipPath>
    <clipPath
       clipPathUnits="userSpaceOnUse"
       id="clipPath12">
      <path
         d="M 0,0 H 2187.5 V 1562.5 H 0 Z"
         transform="matrix(0.31999999,0,0,0.31999999,-682.81997,0)"
         clip-rule="evenodd"
         id="path12" />
    </clipPath>
    <clipPath
       clipPathUnits="userSpaceOnUse"
       id="clipPath14">
      <path
         d="M 0,0 H 2187.5 V 1562.5 H 0 Z"
         transform="matrix(0.31999999,0,0,0.31999999,0,-426.32998)"
         clip-rule="evenodd"
         id="path14" />
    </clipPath>
    <clipPath
       clipPathUnits="userSpaceOnUse"
       id="clipPath16">
      <path
         d="M 0,0 H 2187.5 V 1562.5 H 0 Z"
         transform="matrix(0.31999999,0,0,0.31999999,0,-384.58998)"
         clip-rule="evenodd"
         id="path16" />
    </clipPath>
    <clipPath
       clipPathUnits="userSpaceOnUse"
       id="clipPath18">
      <path
         d="M 0,0 H 2187.5 V 1562.5 H 0 Z"
         transform="matrix(0.31999999,0,0,0.31999999,0,-342.83999)"
         clip-rule="evenodd"
         id="path18" />
    </clipPath>
    <clipPath
       clipPathUnits="userSpaceOnUse"
       id="clipPath20">
      <path
         d="M 0,0 H 2187.5 V 1562.5 H 0 Z"
         transform="matrix(0.31999999,0,0,0.31999999,0,-301.08999)"
         clip-rule="evenodd"
         id="path20" />
    </clipPath>
    <clipPath
       clipPathUnits="userSpaceOnUse"
       id="clipPath22">
      <path
         d="M 0,0 H 2187.5 V 1562.5 H 0 Z"
         transform="matrix(0.31999999,0,0,0.31999999,0,-259.34999)"
         clip-rule="evenodd"
         id="path22" />
    </clipPath>
    <clipPath
       clipPathUnits="userSpaceOnUse"
       id="clipPath24">
      <path
         d="M 0,0 H 2187.5 V 1562.5 H 0 Z"
         transform="matrix(0.31999999,0,0,0.31999999,0,-217.59999)"
         clip-rule="evenodd"
         id="path24" />
    </clipPath>
    <clipPath
       clipPathUnits="userSpaceOnUse"
       id="clipPath26">
      <path
         d="M 0,0 H 2187.5 V 1562.5 H 0 Z"
         transform="matrix(0.31999999,0,0,0.31999999,0,-175.85999)"
         clip-rule="evenodd"
         id="path26" />
    </clipPath>
    <clipPath
       clipPathUnits="userSpaceOnUse"
       id="clipPath28">
      <path
         d="M 0,0 H 2187.5 V 1562.5 H 0 Z"
         transform="matrix(0.31999999,0,0,0.31999999,0,-134.10999)"
         clip-rule="evenodd"
         id="path28" />
    </clipPath>
    <clipPath
       clipPathUnits="userSpaceOnUse"
       id="clipPath30">
      <path
         d="M 0,0 H 2187.5 V 1562.5 H 0 Z"
         transform="matrix(0.31999999,0,0,0.31999999,0,-92.359996)"
         clip-rule="evenodd"
         id="path30" />
    </clipPath>
    <clipPath
       clipPathUnits="userSpaceOnUse"
       id="clipPath32">
      <path
         d="M 0,0 H 2187.5 V 1562.5 H 0 Z"
         transform="matrix(0.31999999,0,0,0.31999999,0,-50.619998)"
         clip-rule="evenodd"
         id="path32" />
    </clipPath>
    <clipPath
       clipPathUnits="userSpaceOnUse"
       id="clipPath34">
      <path
         d="M 0,0 H 2187.5 V 1562.5 H 0 Z"
         transform="matrix(0.31999999,0,0,0.31999999,-99.349996,0)"
         clip-rule="evenodd"
         id="path34" />
    </clipPath>
    <clipPath
       clipPathUnits="userSpaceOnUse"
       id="clipPath36">
      <path
         d="M 196.875,93.75 H 2156.25 V 1387.5 H 196.875 Z"
         transform="matrix(0.31999999,0,0,0.31999999,-62.999997,-29.999999)"
         clip-rule="evenodd"
         id="path36" />
    </clipPath>
    <clipPath
       clipPathUnits="userSpaceOnUse"
       id="clipPath38">
      <path
         d="M 196.875,93.75 H 2156.25 V 1387.5 H 196.875 Z"
         transform="matrix(0.31999999,0,0,0.31999999,-99.349996,-55.699998)"
         clip-rule="evenodd"
         id="path38" />
    </clipPath>
    <clipPath
       clipPathUnits="userSpaceOnUse"
       id="clipPath40">
      <path
         d="M 196.875,93.75 H 2156.25 V 1387.5 H 196.875 Z"
         transform="matrix(0.31999999,0,0,0.31999999,-128.51999,-264.40999)"
         clip-rule="evenodd"
         id="path40" />
    </clipPath>
    <clipPath
       clipPathUnits="userSpaceOnUse"
       id="clipPath42">
      <path
         d="M 196.875,93.75 H 2156.25 V 1387.5 H 196.875 Z"
         transform="matrix(0.31999999,0,0,0.31999999,-157.69999,-300.87999)"
         clip-rule="evenodd"
         id="path42" />
    </clipPath>
    <clipPath
       clipPathUnits="userSpaceOnUse"
       id="clipPath44">
      <path
         d="M 196.875,93.75 H 2156.25 V 1387.5 H 196.875 Z"
         transform="matrix(0.31999999,0,0,0.31999999,-186.86999,-318.42001)"
         clip-rule="evenodd"
         id="path44" />
    </clipPath>
    <clipPath
       clipPathUnits="userSpaceOnUse"
       id="clipPath46">
      <path
         d="M 196.875,93.75 H 2156.25 V 1387.5 H 196.875 Z"
         transform="matrix(0.31999999,0,0,0.31999999,-216.03999,-329.93999)"
         clip-rule="evenodd"
         id="path46" />
    </clipPath>
    <clipPath
       clipPathUnits="userSpaceOnUse"
       id="clipPath48">
      <path
         d="M 196.875,93.75 H 2156.25 V 1387.5 H 196.875 Z"
         transform="matrix(0.31999999,0,0,0.31999999,-245.21999,-339.95999)"
         clip-rule="evenodd"
         id="path48" />
    </clipPath>
    <clipPath
       clipPathUnits="userSpaceOnUse"
       id="clipPath50">
      <path
         d="M 196.875,93.75 H 2156.25 V 1387.5 H 196.875 Z"
         transform="matrix(0.31999999,0,0,0.31999999,-274.38999,-351.55999)"
         clip-rule="evenodd"
         id="path50" />
    </clipPath>
    <clipPath
       clipPathUnits="userSpaceOnUse"
       id="clipPath52">
      <path
         d="M 196.875,93.75 H 2156.25 V 1387.5 H 196.875 Z"
         transform="matrix(0.31999999,0,0,0.31999999,-303.56999,-364.01998)"
         clip-rule="evenodd"
         id="path52" />
    </clipPath>
    <clipPath
       clipPathUnits="userSpaceOnUse"
       id="clipPath54">
      <path
         d="M 196.875,93.75 H 2156.25 V 1387.5 H 196.875 Z"
         transform="matrix(0.31999999,0,0,0.31999999,-332.73999,-372.31998)"
         clip-rule="evenodd"
         id="path54" />
    </clipPath>
    <clipPath
       clipPathUnits="userSpaceOnUse"
       id="clipPath56">
      <path
         d="M 196.875,93.75 H 2156.25 V 1387.5 H 196.875 Z"
         transform="matrix(0.31999999,0,0,0.31999999,-361.90998,-378.98998)"
         clip-rule="evenodd"
         id="path56" />
    </clipPath>
    <clipPath
       clipPathUnits="userSpaceOnUse"
       id="clipPath58">
      <path
         d="M 196.875,93.75 H 2156.25 V 1387.5 H 196.875 Z"
         transform="matrix(0.31999999,0,0,0.31999999,-391.08998,-385.00998)"
         clip-rule="evenodd"
         id="path58" />
    </clipPath>
    <clipPath
       clipPathUnits="userSpaceOnUse"
       id="clipPath60">
      <path
         d="M 196.875,93.75 H 2156.25 V 1387.5 H 196.875 Z"
         transform="matrix(0.31999999,0,0,0.31999999,-420.25998,-389.88998)"
         clip-rule="evenodd"
         id="path60" />
    </clipPath>
    <clipPath
       clipPathUnits="userSpaceOnUse"
       id="clipPath62">
      <path
         d="M 196.875,93.75 H 2156.25 V 1387.5 H 196.875 Z"
         transform="matrix(0.31999999,0,0,0.31999999,-449.42998,-394.46998)"
         clip-rule="evenodd"
         id="path62" />
    </clipPath>
    <clipPath
       clipPathUnits="userSpaceOnUse"
       id="clipPath64">
      <path
         d="M 196.875,93.75 H 2156.25 V 1387.5 H 196.875 Z"
         transform="matrix(0.31999999,0,0,0.31999999,-478.60998,-398.25998)"
         clip-rule="evenodd"
         id="path64" />
    </clipPath>
    <clipPath
       clipPathUnits="userSpaceOnUse"
       id="clipPath66">
      <path
         d="M 196.875,93.75 H 2156.25 V 1387.5 H 196.875 Z"
         transform="matrix(0.31999999,0,0,0.31999999,-507.77998,-401.93998)"
         clip-rule="evenodd"
         id="path66" />
    </clipPath>
    <clipPath
       clipPathUnits="userSpaceOnUse"
       id="clipPath68">
      <path
         d="M 196.875,93.75 H 2156.25 V 1387.5 H 196.875 Z"
         transform="matrix(0.31999999,0,0,0.31999999,-536.95998,-405.45998)"
         clip-rule="evenodd"
         id="path68" />
    </clipPath>
    <clipPath
       clipPathUnits="userSpaceOnUse"
       id="clipPath70">
      <path
         d="M 196.875,93.75 H 2156.25 V 1387.5 H 196.875 Z"
         transform="matrix(0.31999999,0,0,0.31999999,-566.12999,-409.06998)"
         clip-rule="evenodd"
         id="path70" />
    </clipPath>
    <clipPath
       clipPathUnits="userSpaceOnUse"
       id="clipPath72">
      <path
         d="M 196.875,93.75 H 2156.25 V 1387.5 H 196.875 Z"
         transform="matrix(0.31999999,0,0,0.31999999,-595.29998,-412.13998)"
         clip-rule="evenodd"
         id="path72" />
    </clipPath>
    <clipPath
       clipPathUnits="userSpaceOnUse"
       id="clipPath74">
      <path
         d="M 196.875,93.75 H 2156.25 V 1387.5 H 196.875 Z"
         transform="matrix(0.31999999,0,0,0.31999999,-624.47997,-415.19998)"
         clip-rule="evenodd"
         id="path74" />
    </clipPath>
    <clipPath
       clipPathUnits="userSpaceOnUse"
       id="clipPath76">
      <path
         d="M 196.875,93.75 H 2156.25 V 1387.5 H 196.875 Z"
         transform="matrix(0.31999999,0,0,0.31999999,-653.65002,-418.29998)"
         clip-rule="evenodd"
         id="path76" />
    </clipPath>
    <clipPath
       clipPathUnits="userSpaceOnUse"
       id="clipPath78">
      <path
         d="M 196.875,93.75 H 2156.25 V 1387.5 H 196.875 Z"
         transform="matrix(0.31999999,0,0,0.31999999,-62.999997,-29.999999)"
         clip-rule="evenodd"
         id="path78" />
    </clipPath>
    <clipPath
       clipPathUnits="userSpaceOnUse"
       id="clipPath80">
      <path
         d="M 196.875,93.75 H 2156.25 V 1387.5 H 196.875 Z"
         transform="matrix(0.31999999,0,0,0.31999999,-99.349996,-225.25999)"
         clip-rule="evenodd"
         id="path80" />
    </clipPath>
    <clipPath
       clipPathUnits="userSpaceOnUse"
       id="clipPath82">
      <path
         d="M 196.875,93.75 H 2156.25 V 1387.5 H 196.875 Z"
         transform="matrix(0.31999999,0,0,0.31999999,-128.51999,-281.91999)"
         clip-rule="evenodd"
         id="path82" />
    </clipPath>
    <clipPath
       clipPathUnits="userSpaceOnUse"
       id="clipPath84">
      <path
         d="M 196.875,93.75 H 2156.25 V 1387.5 H 196.875 Z"
         transform="matrix(0.31999999,0,0,0.31999999,-157.69999,-302.49999)"
         clip-rule="evenodd"
         id="path84" />
    </clipPath>
    <clipPath
       clipPathUnits="userSpaceOnUse"
       id="clipPath86">
      <path
         d="M 196.875,93.75 H 2156.25 V 1387.5 H 196.875 Z"
         transform="matrix(0.31999999,0,0,0.31999999,-186.86999,-318.30999)"
         clip-rule="evenodd"
         id="path86" />
    </clipPath>
    <clipPath
       clipPathUnits="userSpaceOnUse"
       id="clipPath88">
      <path
         d="M 196.875,93.75 H 2156.25 V 1387.5 H 196.875 Z"
         transform="matrix(0.31999999,0,0,0.31999999,-216.03999,-325.93999)"
         clip-rule="evenodd"
         id="path88" />
    </clipPath>
    <clipPath
       clipPathUnits="userSpaceOnUse"
       id="clipPath90">
      <path
         d="M 196.875,93.75 H 2156.25 V 1387.5 H 196.875 Z"
         transform="matrix(0.31999999,0,0,0.31999999,-245.21999,-330.79999)"
         clip-rule="evenodd"
         id="path90" />
    </clipPath>
    <clipPath
       clipPathUnits="userSpaceOnUse"
       id="clipPath92">
      <path
         d="M 196.875,93.75 H 2156.25 V 1387.5 H 196.875 Z"
         transform="matrix(0.31999999,0,0,0.31999999,-274.38999,-343.13999)"
         clip-rule="evenodd"
         id="path92" />
    </clipPath>
    <clipPath
       clipPathUnits="userSpaceOnUse"
       id="clipPath94">
      <path
         d="M 196.875,93.75 H 2156.25 V 1387.5 H 196.875 Z"
         transform="matrix(0.31999999,0,0,0.31999999,-303.56999,-351.76999)"
         clip-rule="evenodd"
         id="path94" />
    </clipPath>
    <clipPath
       clipPathUnits="userSpaceOnUse"
       id="clipPath96">
      <path
         d="M 196.875,93.75 H 2156.25 V 1387.5 H 196.875 Z"
         transform="matrix(0.31999999,0,0,0.31999999,-332.73999,-354.26999)"
         clip-rule="evenodd"
         id="path96" />
    </clipPath>
    <clipPath
       clipPathUnits="userSpaceOnUse"
       id="clipPath98">
      <path
         d="M 196.875,93.75 H 2156.25 V 1387.5 H 196.875 Z"
         transform="matrix(0.31999999,0,0,0.31999999,-361.90998,-358.58999)"
         clip-rule="evenodd"
         id="path98" />
    </clipPath>
    <clipPath
       clipPathUnits="userSpaceOnUse"
       id="clipPath100">
      <path
         d="M 196.875,93.75 H 2156.25 V 1387.5 H 196.875 Z"
         transform="matrix(0.31999999,0,0,0.31999999,-391.08998,-359.53999)"
         clip-rule="evenodd"
         id="path100" />
    </clipPath>
    <clipPath
       clipPathUnits="userSpaceOnUse"
       id="clipPath102">
      <path
         d="M 196.875,93.75 H 2156.25 V 1387.5 H 196.875 Z"
         transform="matrix(0.31999999,0,0,0.31999999,-420.25998,-362.18998)"
         clip-rule="evenodd"
         id="path102" />
    </clipPath>
    <clipPath
       clipPathUnits="userSpaceOnUse"
       id="clipPath104">
      <path
         d="M 196.875,93.75 H 2156.25 V 1387.5 H 196.875 Z"
         transform="matrix(0.31999999,0,0,0.31999999,-449.42998,-360.99998)"
         clip-rule="evenodd"
         id="path104" />
    </clipPath>
    <clipPath
       clipPathUnits="userSpaceOnUse"
       id="clipPath106">
      <path
         d="M 196.875,93.75 H 2156.25 V 1387.5 H 196.875 Z"
         transform="matrix(0.31999999,0,0,0.31999999,-478.60998,-358.03999)"
         clip-rule="evenodd"
         id="path106" />
    </clipPath>
    <clipPath
       clipPathUnits="userSpaceOnUse"
       id="clipPath108">
      <path
         d="M 196.875,93.75 H 2156.25 V 1387.5 H 196.875 Z"
         transform="matrix(0.31999999,0,0,0.31999999,-507.77998,-356.98999)"
         clip-rule="evenodd"
         id="path108" />
    </clipPath>
    <clipPath
       clipPathUnits="userSpaceOnUse"
       id="clipPath110">
      <path
         d="M 196.875,93.75 H 2156.25 V 1387.5 H 196.875 Z"
         transform="matrix(0.31999999,0,0,0.31999999,-536.95998,-360.41998)"
         clip-rule="evenodd"
         id="path110" />
    </clipPath>
    <clipPath
       clipPathUnits="userSpaceOnUse"
       id="clipPath112">
      <path
         d="M 196.875,93.75 H 2156.25 V 1387.5 H 196.875 Z"
         transform="matrix(0.31999999,0,0,0.31999999,-566.12999,-359.09999)"
         clip-rule="evenodd"
         id="path112" />
    </clipPath>
    <clipPath
       clipPathUnits="userSpaceOnUse"
       id="clipPath114">
      <path
         d="M 196.875,93.75 H 2156.25 V 1387.5 H 196.875 Z"
         transform="matrix(0.31999999,0,0,0.31999999,-595.29998,-354.61999)"
         clip-rule="evenodd"
         id="path114" />
    </clipPath>
    <clipPath
       clipPathUnits="userSpaceOnUse"
       id="clipPath116">
      <path
         d="M 196.875,93.75 H 2156.25 V 1387.5 H 196.875 Z"
         transform="matrix(0.31999999,0,0,0.31999999,-624.47997,-358.16999)"
         clip-rule="evenodd"
         id="path116" />
    </clipPath>
    <clipPath
       clipPathUnits="userSpaceOnUse"
       id="clipPath118">
      <path
         d="M 196.875,93.75 H 2156.25 V 1387.5 H 196.875 Z"
         transform="matrix(0.31999999,0,0,0.31999999,-653.65002,-350.71999)"
         clip-rule="evenodd"
         id="path118" />
    </clipPath>
    <clipPath
       clipPathUnits="userSpaceOnUse"
       id="clipPath119">
      <path
         d="M 0,0 H 2187.5 V 1562.5 H 0 Z"
         transform="matrix(0.31999999,0,0,0.31999999,-95.850011,-458.99998)"
         clip-rule="evenodd"
         id="path119" />
    </clipPath>
    <clipPath
       clipPathUnits="userSpaceOnUse"
       id="clipPath120">
      <path
         d="M 0,0 H 2187.5 V 1562.5 H 0 Z"
         transform="matrix(0.31999999,0,0,0.31999999,-241.72001,-458.99998)"
         clip-rule="evenodd"
         id="path120" />
    </clipPath>
    <clipPath
       clipPathUnits="userSpaceOnUse"
       id="clipPath121">
      <path
         d="M 0,0 H 2187.5 V 1562.5 H 0 Z"
         transform="matrix(0.31999999,0,0,0.31999999,-384.09001,-458.99998)"
         clip-rule="evenodd"
         id="path121" />
    </clipPath>
    <clipPath
       clipPathUnits="userSpaceOnUse"
       id="clipPath122">
      <path
         d="M 0,0 H 2187.5 V 1562.5 H 0 Z"
         transform="matrix(0.31999999,0,0,0.31999999,-529.96004,-458.99998)"
         clip-rule="evenodd"
         id="path122" />
    </clipPath>
    <clipPath
       clipPathUnits="userSpaceOnUse"
       id="clipPath123">
      <path
         d="M 0,0 H 2187.5 V 1562.5 H 0 Z"
         transform="matrix(0.31999999,0,0,0.31999999,-675.82,-458.99998)"
         clip-rule="evenodd"
         id="path123" />
    </clipPath>
    <clipPath
       clipPathUnits="userSpaceOnUse"
       id="clipPath124">
      <path
         d="M 0,0 H 2187.5 V 1562.5 H 0 Z"
         transform="matrix(0.31999999,0,0,0.31999999,-44.108076,-431.22998)"
         clip-rule="evenodd"
         id="path124" />
    </clipPath>
    <clipPath
       clipPathUnits="userSpaceOnUse"
       id="clipPath125">
      <path
         d="M 0,0 H 2187.5 V 1562.5 H 0 Z"
         transform="matrix(0.31999999,0,0,0.31999999,-37.108107,-389.48998)"
         clip-rule="evenodd"
         id="path125" />
    </clipPath>
    <clipPath
       clipPathUnits="userSpaceOnUse"
       id="clipPath126">
      <path
         d="M 0,0 H 2187.5 V 1562.5 H 0 Z"
         transform="matrix(0.31999999,0,0,0.31999999,-44.108076,-347.73999)"
         clip-rule="evenodd"
         id="path126" />
    </clipPath>
    <clipPath
       clipPathUnits="userSpaceOnUse"
       id="clipPath127">
      <path
         d="M 0,0 H 2187.5 V 1562.5 H 0 Z"
         transform="matrix(0.31999999,0,0,0.31999999,-37.108107,-305.98999)"
         clip-rule="evenodd"
         id="path127" />
    </clipPath>
    <clipPath
       clipPathUnits="userSpaceOnUse"
       id="clipPath128">
      <path
         d="M 0,0 H 2187.5 V 1562.5 H 0 Z"
         transform="matrix(0.31999999,0,0,0.31999999,-44.108076,-264.24999)"
         clip-rule="evenodd"
         id="path128" />
    </clipPath>
    <clipPath
       clipPathUnits="userSpaceOnUse"
       id="clipPath129">
      <path
         d="M 0,0 H 2187.5 V 1562.5 H 0 Z"
         transform="matrix(0.31999999,0,0,0.31999999,-37.108107,-222.49999)"
         clip-rule="evenodd"
         id="path129" />
    </clipPath>
    <clipPath
       clipPathUnits="userSpaceOnUse"
       id="clipPath130">
      <path
         d="M 0,0 H 2187.5 V 1562.5 H 0 Z"
         transform="matrix(0.31999999,0,0,0.31999999,-44.108076,-180.75999)"
         clip-rule="evenodd"
         id="path130" />
    </clipPath>
    <clipPath
       clipPathUnits="userSpaceOnUse"
       id="clipPath131">
      <path
         d="M 0,0 H 2187.5 V 1562.5 H 0 Z"
         transform="matrix(0.31999999,0,0,0.31999999,-37.108107,-139.00999)"
         clip-rule="evenodd"
         id="path131" />
    </clipPath>
    <clipPath
       clipPathUnits="userSpaceOnUse"
       id="clipPath132">
      <path
         d="M 0,0 H 2187.5 V 1562.5 H 0 Z"
         transform="matrix(0.31999999,0,0,0.31999999,-44.108076,-97.259996)"
         clip-rule="evenodd"
         id="path132" />
    </clipPath>
    <clipPath
       clipPathUnits="userSpaceOnUse"
       id="clipPath133">
      <path
         d="M 0,0 H 2187.5 V 1562.5 H 0 Z"
         transform="matrix(0.31999999,0,0,0.31999999,-37.108107,-55.519998)"
         clip-rule="evenodd"
         id="path133" />
    </clipPath>
    <clipPath
       clipPathUnits="userSpaceOnUse"
       id="clipPath134">
      <path
         d="m 1666.4063,93.75 h 437.5 v 165.625 h -437.5 z"
         transform="matrix(0.31999999,0,0,0.31999999,-573.24998,-51.059998)"
         clip-rule="evenodd"
         id="path134" />
    </clipPath>
    <clipPath
       clipPathUnits="userSpaceOnUse"
       id="clipPath136">
      <path
         d="m 1666.4063,93.75 h 437.5 v 165.625 h -437.5 z"
         transform="matrix(0.31999999,0,0,0.31999999,-533.24998,-45.599998)"
         clip-rule="evenodd"
         id="path136" />
    </clipPath>
    <clipPath
       clipPathUnits="userSpaceOnUse"
       id="clipPath138">
      <path
         d="m 1666.4063,93.75 h 437.5 v 165.625 h -437.5 z"
         transform="matrix(0.31999999,0,0,0.31999999,-553.24999,-45.599998)"
         clip-rule="evenodd"
         id="path138" />
    </clipPath>
    <clipPath
       clipPathUnits="userSpaceOnUse"
       id="clipPath139">
      <path
         d="m 1666.4063,93.75 h 437.5 v 165.625 h -437.5 z"
         transform="matrix(0.31999999,0,0,0.31999999,-573.24998,-72.259997)"
         clip-rule="evenodd"
         id="path139" />
    </clipPath>
    <clipPath
       clipPathUnits="userSpaceOnUse"
       id="clipPath141">
      <path
         d="m 1666.4063,93.75 h 437.5 v 165.625 h -437.5 z"
         transform="matrix(0.31999999,0,0,0.31999999,-533.24998,-66.799997)"
         clip-rule="evenodd"
         id="path141" />
    </clipPath>
    <clipPath
       clipPathUnits="userSpaceOnUse"
       id="clipPath143">
      <path
         d="m 1666.4063,93.75 h 437.5 v 165.625 h -437.5 z"
         transform="matrix(0.31999999,0,0,0.31999999,-553.24999,-66.799997)"
         clip-rule="evenodd"
         id="path143" />
    </clipPath>
    <clipPath
       clipPathUnits="userSpaceOnUse"
       id="clipPath144">
      <path
         d="M 0,0 H 2187.5 V 1562.5 H 0 Z"
         transform="matrix(0.31999999,0,0,0.31999999,-34.999999,-14.999999)"
         clip-rule="evenodd"
         id="path144" />
    </clipPath>
    <clipPath
       clipPathUnits="userSpaceOnUse"
       id="clipPath145">
      <path
         d="M 0,0 H 2187.5 V 1562.5 H 0 Z"
         transform="matrix(0.31999999,0,0,0.31999999,-349.67406,-489.39997)"
         clip-rule="evenodd"
         id="path145" />
    </clipPath>
    <clipPath
       clipPathUnits="userSpaceOnUse"
       id="clipPath146">
      <path
         d="M 0,0 H 2187.5 V 1562.5 H 0 Z"
         transform="matrix(0,0.31999999,-0.31999999,0,253.26046,-16.64374)"
         clip-rule="evenodd"
         id="path146" />
    </clipPath>
  </defs>
  <sodipodi:namedview
     id="namedview1"
     pagecolor="#ffffff"
     bordercolor="#000000"
     borderopacity="0.25"
     inkscape:showpageshadow="2"
     inkscape:pageopacity="0.0"
     inkscape:pagecheckerboard="0"
     inkscape:deskcolor="#d1d1d1">
    <inkscape:page
       x="0"
       y="0"
       inkscape:label="1"
       id="page1"
       width="700.15997"
       height="500.16"
       margin="0"
       bleed="0" />
  </sodipodi:namedview>
  <g
     id="g1"
     inkscape:groupmode="layer"
     inkscape:label="1">
    <path
       id="path1"
       d="M 0,0 H 700 V 500 H 0 Z"
       style="fill:#ffffff;fill-opacity:1;fill-rule:nonzero;stroke:none"
       clip-path="url(#clipPath2)" />
    <path
       id="path3"
       d="M 63,30 H 690 V 444 H 63 Z"
       style="fill:#ffffff;fill-opacity:1;fill-rule:nonzero;stroke:none"
       clip-path="url(#clipPath4)" />
    <path
       id="path5"
       d="M 0,30 V 444"
       style="fill:none;stroke:#ebf0f8;stroke-width:1;stroke-linecap:butt;stroke-linejoin:miter;stroke-miterlimit:10;stroke-dasharray:none;stroke-opacity:1"
       transform="translate(245.21999)"
       clip-path="url(#clipPath6)" />
    <path
       id="path7"
       d="M 0,30 V 444"
       style="fill:none;stroke:#ebf0f8;stroke-width:1;stroke-linecap:butt;stroke-linejoin:miter;stroke-miterlimit:10;stroke-dasharray:none;stroke-opacity:1"
       transform="translate(391.08998)"
       clip-path="url(#clipPath8)" />
    <path
       id="path9"
       d="M 0,30 V 444"
       style="fill:none;stroke:#ebf0f8;stroke-width:1;stroke-linecap:butt;stroke-linejoin:miter;stroke-miterlimit:10;stroke-dasharray:none;stroke-opacity:1"
       transform="translate(536.96001)"
       clip-path="url(#clipPath10)" />
    <path
       id="path11"
       d="M 0,30 V 444"
       style="fill:none;stroke:#ebf0f8;stroke-width:1;stroke-linecap:butt;stroke-linejoin:miter;stroke-miterlimit:10;stroke-dasharray:none;stroke-opacity:1"
       transform="translate(682.81997)"
       clip-path="url(#clipPath12)" />
    <path
       id="path13"
       d="M 63,0 H 690"
       style="fill:none;stroke:#ebf0f8;stroke-width:1;stroke-linecap:butt;stroke-linejoin:miter;stroke-miterlimit:10;stroke-dasharray:none;stroke-opacity:1"
       transform="translate(0,426.32998)"
       clip-path="url(#clipPath14)" />
    <path
       id="path15"
       d="M 63,0 H 690"
       style="fill:none;stroke:#ebf0f8;stroke-width:1;stroke-linecap:butt;stroke-linejoin:miter;stroke-miterlimit:10;stroke-dasharray:none;stroke-opacity:1"
       transform="translate(0,384.58998)"
       clip-path="url(#clipPath16)" />
    <path
       id="path17"
       d="M 63,0 H 690"
       style="fill:none;stroke:#ebf0f8;stroke-width:1;stroke-linecap:butt;stroke-linejoin:miter;stroke-miterlimit:10;stroke-dasharray:none;stroke-opacity:1"
       transform="translate(0,342.83999)"
       clip-path="url(#clipPath18)" />
    <path
       id="path19"
       d="M 63,0 H 690"
       style="fill:none;stroke:#ebf0f8;stroke-width:1;stroke-linecap:butt;stroke-linejoin:miter;stroke-miterlimit:10;stroke-dasharray:none;stroke-opacity:1"
       transform="translate(0,301.08999)"
       clip-path="url(#clipPath20)" />
    <path
       id="path21"
       d="M 63,0 H 690"
       style="fill:none;stroke:#ebf0f8;stroke-width:1;stroke-linecap:butt;stroke-linejoin:miter;stroke-miterlimit:10;stroke-dasharray:none;stroke-opacity:1"
       transform="translate(0,259.34999)"
       clip-path="url(#clipPath22)" />
    <path
       id="path23"
       d="M 63,0 H 690"
       style="fill:none;stroke:#ebf0f8;stroke-width:1;stroke-linecap:butt;stroke-linejoin:miter;stroke-miterlimit:10;stroke-dasharray:none;stroke-opacity:1"
       transform="translate(0,217.59999)"
       clip-path="url(#clipPath24)" />
    <path
       id="path25"
       d="M 63,0 H 690"
       style="fill:none;stroke:#ebf0f8;stroke-width:1;stroke-linecap:butt;stroke-linejoin:miter;stroke-miterlimit:10;stroke-dasharray:none;stroke-opacity:1"
       transform="translate(0,175.85999)"
       clip-path="url(#clipPath26)" />
    <path
       id="path27"
       d="M 63,0 H 690"
       style="fill:none;stroke:#ebf0f8;stroke-width:1;stroke-linecap:butt;stroke-linejoin:miter;stroke-miterlimit:10;stroke-dasharray:none;stroke-opacity:1"
       transform="translate(0,134.10999)"
       clip-path="url(#clipPath28)" />
    <path
       id="path29"
       d="M 63,0 H 690"
       style="fill:none;stroke:#ebf0f8;stroke-width:1;stroke-linecap:butt;stroke-linejoin:miter;stroke-miterlimit:10;stroke-dasharray:none;stroke-opacity:1"
       transform="translate(0,92.359996)"
       clip-path="url(#clipPath30)" />
    <path
       id="path31"
       d="M 63,0 H 690"
       style="fill:none;stroke:#ebf0f8;stroke-width:1;stroke-linecap:butt;stroke-linejoin:miter;stroke-miterlimit:10;stroke-dasharray:none;stroke-opacity:1"
       transform="translate(0,50.619998)"
       clip-path="url(#clipPath32)" />
    <path
       id="path33"
       d="M 0,30 V 444"
       style="fill:none;stroke:#ebf0f8;stroke-width:1;stroke-linecap:butt;stroke-linejoin:miter;stroke-miterlimit:10;stroke-dasharray:none;stroke-opacity:1"
       transform="translate(99.349996)"
       clip-path="url(#clipPath34)" />
    <path
       id="path35"
       d="M 36.349998,25.700001 65.519997,234.41 l 29.18,36.47 L 123.87,288.42001 153.03999,299.94 182.22,309.95999 211.39,321.56 l 29.18001,12.45999 29.16998,8.30002 58.35001,12.69 29.17001,4.88 29.16998,4.57999 29.18,3.79001 87.52001,10.81 29.16999,3.07 58.35003,6.15998"
       style="fill:none;stroke:#22668d;stroke-width:1;stroke-linecap:butt;stroke-linejoin:miter;stroke-miterlimit:10;stroke-dasharray:none;stroke-opacity:1"
       transform="translate(62.999997,29.999999)"
       clip-path="url(#clipPath36)" />
    <path
       id="path37"
       d="M 4,0 C 3.9999998,0.53043294 3.8985057,1.0406774 3.6955178,1.5307336 3.4925299,2.0207899 3.2034996,2.4533544 2.8284271,2.8284271 2.4533544,3.2034996 2.0207899,3.4925299 1.5307336,3.6955178 1.0406774,3.8985057 0.53043294,3.9999998 0,4 -0.53043294,3.9999998 -1.0406774,3.8985057 -1.5307336,3.6955178 -2.0207899,3.4925299 -2.4533544,3.2034996 -2.8284271,2.8284271 -3.2034996,2.4533544 -3.4925299,2.0207899 -3.6955178,1.5307336 -3.8985057,1.0406774 -3.9999998,0.53043294 -4,0 c 2e-7,-0.53043294 0.1014943,-1.0406774 0.3044822,-1.5307336 0.2029879,-0.4900563 0.4920182,-0.9226208 0.8670907,-1.2976935 0.3750727,-0.3750725 0.8076372,-0.6641028 1.2976935,-0.8670907 C -1.0406774,-3.8985057 -0.53043294,-3.9999998 0,-4 c 0.53043294,2e-7 1.0406774,0.1014943 1.5307336,0.3044822 0.4900563,0.2029879 0.9226208,0.4920182 1.2976935,0.8670907 0.3750725,0.3750727 0.6641028,0.8076372 0.8670907,1.2976935 C 3.8985057,-1.0406774 3.9999998,-0.53043294 4,0 Z"
       style="fill:none;stroke:#22668d;stroke-width:1;stroke-linecap:butt;stroke-linejoin:miter;stroke-miterlimit:10;stroke-dasharray:none;stroke-opacity:1"
       transform="translate(99.349996,55.699998)"
       clip-path="url(#clipPath38)" />
    <path
       id="path39"
       d="M 4,0 C 3.9999998,0.53043294 3.8985057,1.0406774 3.6955178,1.5307336 3.4925299,2.0207899 3.2034996,2.4533544 2.8284271,2.8284271 2.4533544,3.2034996 2.0207899,3.4925299 1.5307336,3.6955178 1.0406774,3.8985057 0.53043294,3.9999998 0,4 -0.53043294,3.9999998 -1.0406774,3.8985057 -1.5307336,3.6955178 -2.0207899,3.4925299 -2.4533544,3.2034996 -2.8284271,2.8284271 -3.2034996,2.4533544 -3.4925299,2.0207899 -3.6955178,1.5307336 -3.8985057,1.0406774 -3.9999998,0.53043294 -4,0 c 2e-7,-0.53043294 0.1014943,-1.0406774 0.3044822,-1.5307336 0.2029879,-0.4900563 0.4920182,-0.9226208 0.8670907,-1.2976935 0.3750727,-0.3750725 0.8076372,-0.6641028 1.2976935,-0.8670907 C -1.0406774,-3.8985057 -0.53043294,-3.9999998 0,-4 c 0.53043294,2e-7 1.0406774,0.1014943 1.5307336,0.3044822 0.4900563,0.2029879 0.9226208,0.4920182 1.2976935,0.8670907 0.3750725,0.3750727 0.6641028,0.8076372 0.8670907,1.2976935 C 3.8985057,-1.0406774 3.9999998,-0.53043294 4,0 Z"
       style="fill:none;stroke:#22668d;stroke-width:1;stroke-linecap:butt;stroke-linejoin:miter;stroke-miterlimit:10;stroke-dasharray:none;stroke-opacity:1"
       transform="translate(128.51999,264.40999)"
       clip-path="url(#clipPath40)" />
    <path
       id="path41"
       d="M 4,0 C 3.9999998,0.53043294 3.8985057,1.0406774 3.6955178,1.5307336 3.4925299,2.0207899 3.2034996,2.4533544 2.8284271,2.8284271 2.4533544,3.2034996 2.0207899,3.4925299 1.5307336,3.6955178 1.0406774,3.8985057 0.53043294,3.9999998 0,4 -0.53043294,3.9999998 -1.0406774,3.8985057 -1.5307336,3.6955178 -2.0207899,3.4925299 -2.4533544,3.2034996 -2.8284271,2.8284271 -3.2034996,2.4533544 -3.4925299,2.0207899 -3.6955178,1.5307336 -3.8985057,1.0406774 -3.9999998,0.53043294 -4,0 c 2e-7,-0.53043294 0.1014943,-1.0406774 0.3044822,-1.5307336 0.2029879,-0.4900563 0.4920182,-0.9226208 0.8670907,-1.2976935 0.3750727,-0.3750725 0.8076372,-0.6641028 1.2976935,-0.8670907 C -1.0406774,-3.8985057 -0.53043294,-3.9999998 0,-4 c 0.53043294,2e-7 1.0406774,0.1014943 1.5307336,0.3044822 0.4900563,0.2029879 0.9226208,0.4920182 1.2976935,0.8670907 0.3750725,0.3750727 0.6641028,0.8076372 0.8670907,1.2976935 C 3.8985057,-1.0406774 3.9999998,-0.53043294 4,0 Z"
       style="fill:none;stroke:#22668d;stroke-width:1;stroke-linecap:butt;stroke-linejoin:miter;stroke-miterlimit:10;stroke-dasharray:none;stroke-opacity:1"
       transform="translate(157.69999,300.87999)"
       clip-path="url(#clipPath42)" />
    <path
       id="path43"
       d="M 4,0 C 3.9999998,0.53043294 3.8985057,1.0406774 3.6955178,1.5307336 3.4925299,2.0207899 3.2034996,2.4533544 2.8284271,2.8284271 2.4533544,3.2034996 2.0207899,3.4925299 1.5307336,3.6955178 1.0406774,3.8985057 0.53043294,3.9999998 0,4 -0.53043294,3.9999998 -1.0406774,3.8985057 -1.5307336,3.6955178 -2.0207899,3.4925299 -2.4533544,3.2034996 -2.8284271,2.8284271 -3.2034996,2.4533544 -3.4925299,2.0207899 -3.6955178,1.5307336 -3.8985057,1.0406774 -3.9999998,0.53043294 -4,0 c 2e-7,-0.53043294 0.1014943,-1.0406774 0.3044822,-1.5307336 0.2029879,-0.4900563 0.4920182,-0.9226208 0.8670907,-1.2976935 0.3750727,-0.3750725 0.8076372,-0.6641028 1.2976935,-0.8670907 C -1.0406774,-3.8985057 -0.53043294,-3.9999998 0,-4 c 0.53043294,2e-7 1.0406774,0.1014943 1.5307336,0.3044822 0.4900563,0.2029879 0.9226208,0.4920182 1.2976935,0.8670907 0.3750725,0.3750727 0.6641028,0.8076372 0.8670907,1.2976935 C 3.8985057,-1.0406774 3.9999998,-0.53043294 4,0 Z"
       style="fill:none;stroke:#22668d;stroke-width:1;stroke-linecap:butt;stroke-linejoin:miter;stroke-miterlimit:10;stroke-dasharray:none;stroke-opacity:1"
       transform="translate(186.86999,318.42001)"
       clip-path="url(#clipPath44)" />
    <path
       id="path45"
       d="M 4,0 C 3.9999998,0.53043294 3.8985057,1.0406774 3.6955178,1.5307336 3.4925299,2.0207899 3.2034996,2.4533544 2.8284271,2.8284271 2.4533544,3.2034996 2.0207899,3.4925299 1.5307336,3.6955178 1.0406774,3.8985057 0.53043294,3.9999998 0,4 -0.53043294,3.9999998 -1.0406774,3.8985057 -1.5307336,3.6955178 -2.0207899,3.4925299 -2.4533544,3.2034996 -2.8284271,2.8284271 -3.2034996,2.4533544 -3.4925299,2.0207899 -3.6955178,1.5307336 -3.8985057,1.0406774 -3.9999998,0.53043294 -4,0 c 2e-7,-0.53043294 0.1014943,-1.0406774 0.3044822,-1.5307336 0.2029879,-0.4900563 0.4920182,-0.9226208 0.8670907,-1.2976935 0.3750727,-0.3750725 0.8076372,-0.6641028 1.2976935,-0.8670907 C -1.0406774,-3.8985057 -0.53043294,-3.9999998 0,-4 c 0.53043294,2e-7 1.0406774,0.1014943 1.5307336,0.3044822 0.4900563,0.2029879 0.9226208,0.4920182 1.2976935,0.8670907 0.3750725,0.3750727 0.6641028,0.8076372 0.8670907,1.2976935 C 3.8985057,-1.0406774 3.9999998,-0.53043294 4,0 Z"
       style="fill:none;stroke:#22668d;stroke-width:1;stroke-linecap:butt;stroke-linejoin:miter;stroke-miterlimit:10;stroke-dasharray:none;stroke-opacity:1"
       transform="translate(216.03999,329.93999)"
       clip-path="url(#clipPath46)" />
    <path
       id="path47"
       d="M 4,0 C 3.9999998,0.53043294 3.8985057,1.0406774 3.6955178,1.5307336 3.4925299,2.0207899 3.2034996,2.4533544 2.8284271,2.8284271 2.4533544,3.2034996 2.0207899,3.4925299 1.5307336,3.6955178 1.0406774,3.8985057 0.53043294,3.9999998 0,4 -0.53043294,3.9999998 -1.0406774,3.8985057 -1.5307336,3.6955178 -2.0207899,3.4925299 -2.4533544,3.2034996 -2.8284271,2.8284271 -3.2034996,2.4533544 -3.4925299,2.0207899 -3.6955178,1.5307336 -3.8985057,1.0406774 -3.9999998,0.53043294 -4,0 c 2e-7,-0.53043294 0.1014943,-1.0406774 0.3044822,-1.5307336 0.2029879,-0.4900563 0.4920182,-0.9226208 0.8670907,-1.2976935 0.3750727,-0.3750725 0.8076372,-0.6641028 1.2976935,-0.8670907 C -1.0406774,-3.8985057 -0.53043294,-3.9999998 0,-4 c 0.53043294,2e-7 1.0406774,0.1014943 1.5307336,0.3044822 0.4900563,0.2029879 0.9226208,0.4920182 1.2976935,0.8670907 0.3750725,0.3750727 0.6641028,0.8076372 0.8670907,1.2976935 C 3.8985057,-1.0406774 3.9999998,-0.53043294 4,0 Z"
       style="fill:none;stroke:#22668d;stroke-width:1;stroke-linecap:butt;stroke-linejoin:miter;stroke-miterlimit:10;stroke-dasharray:none;stroke-opacity:1"
       transform="translate(245.21999,339.95999)"
       clip-path="url(#clipPath48)" />
    <path
       id="path49"
       d="M 4,0 C 3.9999998,0.53043294 3.8985057,1.0406774 3.6955178,1.5307336 3.4925299,2.0207899 3.2034996,2.4533544 2.8284271,2.8284271 2.4533544,3.2034996 2.0207899,3.4925299 1.5307336,3.6955178 1.0406774,3.8985057 0.53043294,3.9999998 0,4 -0.53043294,3.9999998 -1.0406774,3.8985057 -1.5307336,3.6955178 -2.0207899,3.4925299 -2.4533544,3.2034996 -2.8284271,2.8284271 -3.2034996,2.4533544 -3.4925299,2.0207899 -3.6955178,1.5307336 -3.8985057,1.0406774 -3.9999998,0.53043294 -4,0 c 2e-7,-0.53043294 0.1014943,-1.0406774 0.3044822,-1.5307336 0.2029879,-0.4900563 0.4920182,-0.9226208 0.8670907,-1.2976935 0.3750727,-0.3750725 0.8076372,-0.6641028 1.2976935,-0.8670907 C -1.0406774,-3.8985057 -0.53043294,-3.9999998 0,-4 c 0.53043294,2e-7 1.0406774,0.1014943 1.5307336,0.3044822 0.4900563,0.2029879 0.9226208,0.4920182 1.2976935,0.8670907 0.3750725,0.3750727 0.6641028,0.8076372 0.8670907,1.2976935 C 3.8985057,-1.0406774 3.9999998,-0.53043294 4,0 Z"
       style="fill:none;stroke:#22668d;stroke-width:1;stroke-linecap:butt;stroke-linejoin:miter;stroke-miterlimit:10;stroke-dasharray:none;stroke-opacity:1"
       transform="translate(274.38999,351.55999)"
       clip-path="url(#clipPath50)" />
    <path
       id="path51"
       d="M 4,0 C 3.9999998,0.53043294 3.8985057,1.0406774 3.6955178,1.5307336 3.4925299,2.0207899 3.2034996,2.4533544 2.8284271,2.8284271 2.4533544,3.2034996 2.0207899,3.4925299 1.5307336,3.6955178 1.0406774,3.8985057 0.53043294,3.9999998 0,4 -0.53043294,3.9999998 -1.0406774,3.8985057 -1.5307336,3.6955178 -2.0207899,3.4925299 -2.4533544,3.2034996 -2.8284271,2.8284271 -3.2034996,2.4533544 -3.4925299,2.0207899 -3.6955178,1.5307336 -3.8985057,1.0406774 -3.9999998,0.53043294 -4,0 c 2e-7,-0.53043294 0.1014943,-1.0406774 0.3044822,-1.5307336 0.2029879,-0.4900563 0.4920182,-0.9226208 0.8670907,-1.2976935 0.3750727,-0.3750725 0.8076372,-0.6641028 1.2976935,-0.8670907 C -1.0406774,-3.8985057 -0.53043294,-3.9999998 0,-4 c 0.53043294,2e-7 1.0406774,0.1014943 1.5307336,0.3044822 0.4900563,0.2029879 0.9226208,0.4920182 1.2976935,0.8670907 0.3750725,0.3750727 0.6641028,0.8076372 0.8670907,1.2976935 C 3.8985057,-1.0406774 3.9999998,-0.53043294 4,0 Z"
       style="fill:none;stroke:#22668d;stroke-width:1;stroke-linecap:butt;stroke-linejoin:miter;stroke-miterlimit:10;stroke-dasharray:none;stroke-opacity:1"
       transform="translate(303.56999,364.01998)"
       clip-path="url(#clipPath52)" />
    <path
       id="path53"
       d="M 4,0 C 3.9999998,0.53043294 3.8985057,1.0406774 3.6955178,1.5307336 3.4925299,2.0207899 3.2034996,2.4533544 2.8284271,2.8284271 2.4533544,3.2034996 2.0207899,3.4925299 1.5307336,3.6955178 1.0406774,3.8985057 0.53043294,3.9999998 0,4 -0.53043294,3.9999998 -1.0406774,3.8985057 -1.5307336,3.6955178 -2.0207899,3.4925299 -2.4533544,3.2034996 -2.8284271,2.8284271 -3.2034996,2.4533544 -3.4925299,2.0207899 -3.6955178,1.5307336 -3.8985057,1.0406774 -3.9999998,0.53043294 -4,0 c 2e-7,-0.53043294 0.1014943,-1.0406774 0.3044822,-1.5307336 0.2029879,-0.4900563 0.4920182,-0.9226208 0.8670907,-1.2976935 0.3750727,-0.3750725 0.8076372,-0.6641028 1.2976935,-0.8670907 C -1.0406774,-3.8985057 -0.53043294,-3.9999998 0,-4 c 0.53043294,2e-7 1.0406774,0.1014943 1.5307336,0.3044822 0.4900563,0.2029879 0.9226208,0.4920182 1.2976935,0.8670907 0.3750725,0.3750727 0.6641028,0.8076372 0.8670907,1.2976935 C 3.8985057,-1.0406774 3.9999998,-0.53043294 4,0 Z"
       style="fill:none;stroke:#22668d;stroke-width:1;stroke-linecap:butt;stroke-linejoin:miter;stroke-miterlimit:10;stroke-dasharray:none;stroke-opacity:1"
       transform="translate(332.73999,372.31998)"
       clip-path="url(#clipPath54)" />
    <path
       id="path55"
       d="M 4,0 C 3.9999998,0.53043294 3.8985057,1.0406774 3.6955178,1.5307336 3.4925299,2.0207899 3.2034996,2.4533544 2.8284271,2.8284271 2.4533544,3.2034996 2.0207899,3.4925299 1.5307336,3.6955178 1.0406774,3.8985057 0.53043294,3.9999998 0,4 -0.53043294,3.9999998 -1.0406774,3.8985057 -1.5307336,3.6955178 -2.0207899,3.4925299 -2.4533544,3.2034996 -2.8284271,2.8284271 -3.2034996,2.4533544 -3.4925299,2.0207899 -3.6955178,1.5307336 -3.8985057,1.0406774 -3.9999998,0.53043294 -4,0 c 2e-7,-0.53043294 0.1014943,-1.0406774 0.3044822,-1.5307336 0.2029879,-0.4900563 0.4920182,-0.9226208 0.8670907,-1.2976935 0.3750727,-0.3750725 0.8076372,-0.6641028 1.2976935,-0.8670907 C -1.0406774,-3.8985057 -0.53043294,-3.9999998 0,-4 c 0.53043294,2e-7 1.0406774,0.1014943 1.5307336,0.3044822 0.4900563,0.2029879 0.9226208,0.4920182 1.2976935,0.8670907 0.3750725,0.3750727 0.6641028,0.8076372 0.8670907,1.2976935 C 3.8985057,-1.0406774 3.9999998,-0.53043294 4,0 Z"
       style="fill:none;stroke:#22668d;stroke-width:1;stroke-linecap:butt;stroke-linejoin:miter;stroke-miterlimit:10;stroke-dasharray:none;stroke-opacity:1"
       transform="translate(361.90998,378.98998)"
       clip-path="url(#clipPath56)" />
    <path
       id="path57"
       d="M 4,0 C 3.9999998,0.53043294 3.8985057,1.0406774 3.6955178,1.5307336 3.4925299,2.0207899 3.2034996,2.4533544 2.8284271,2.8284271 2.4533544,3.2034996 2.0207899,3.4925299 1.5307336,3.6955178 1.0406774,3.8985057 0.53043294,3.9999998 0,4 -0.53043294,3.9999998 -1.0406774,3.8985057 -1.5307336,3.6955178 -2.0207899,3.4925299 -2.4533544,3.2034996 -2.8284271,2.8284271 -3.2034996,2.4533544 -3.4925299,2.0207899 -3.6955178,1.5307336 -3.8985057,1.0406774 -3.9999998,0.53043294 -4,0 c 2e-7,-0.53043294 0.1014943,-1.0406774 0.3044822,-1.5307336 0.2029879,-0.4900563 0.4920182,-0.9226208 0.8670907,-1.2976935 0.3750727,-0.3750725 0.8076372,-0.6641028 1.2976935,-0.8670907 C -1.0406774,-3.8985057 -0.53043294,-3.9999998 0,-4 c 0.53043294,2e-7 1.0406774,0.1014943 1.5307336,0.3044822 0.4900563,0.2029879 0.9226208,0.4920182 1.2976935,0.8670907 0.3750725,0.3750727 0.6641028,0.8076372 0.8670907,1.2976935 C 3.8985057,-1.0406774 3.9999998,-0.53043294 4,0 Z"
       style="fill:none;stroke:#22668d;stroke-width:1;stroke-linecap:butt;stroke-linejoin:miter;stroke-miterlimit:10;stroke-dasharray:none;stroke-opacity:1"
       transform="translate(391.08998,385.00998)"
       clip-path="url(#clipPath58)" />
    <path
       id="path59"
       d="M 4,0 C 3.9999998,0.53043294 3.8985057,1.0406774 3.6955178,1.5307336 3.4925299,2.0207899 3.2034996,2.4533544 2.8284271,2.8284271 2.4533544,3.2034996 2.0207899,3.4925299 1.5307336,3.6955178 1.0406774,3.8985057 0.53043294,3.9999998 0,4 -0.53043294,3.9999998 -1.0406774,3.8985057 -1.5307336,3.6955178 -2.0207899,3.4925299 -2.4533544,3.2034996 -2.8284271,2.8284271 -3.2034996,2.4533544 -3.4925299,2.0207899 -3.6955178,1.5307336 -3.8985057,1.0406774 -3.9999998,0.53043294 -4,0 c 2e-7,-0.53043294 0.1014943,-1.0406774 0.3044822,-1.5307336 0.2029879,-0.4900563 0.4920182,-0.9226208 0.8670907,-1.2976935 0.3750727,-0.3750725 0.8076372,-0.6641028 1.2976935,-0.8670907 C -1.0406774,-3.8985057 -0.53043294,-3.9999998 0,-4 c 0.53043294,2e-7 1.0406774,0.1014943 1.5307336,0.3044822 0.4900563,0.2029879 0.9226208,0.4920182 1.2976935,0.8670907 0.3750725,0.3750727 0.6641028,0.8076372 0.8670907,1.2976935 C 3.8985057,-1.0406774 3.9999998,-0.53043294 4,0 Z"
       style="fill:none;stroke:#22668d;stroke-width:1;stroke-linecap:butt;stroke-linejoin:miter;stroke-miterlimit:10;stroke-dasharray:none;stroke-opacity:1"
       transform="translate(420.25998,389.88998)"
       clip-path="url(#clipPath60)" />
    <path
       id="path61"
       d="M 4,0 C 3.9999998,0.53043294 3.8985057,1.0406774 3.6955178,1.5307336 3.4925299,2.0207899 3.2034996,2.4533544 2.8284271,2.8284271 2.4533544,3.2034996 2.0207899,3.4925299 1.5307336,3.6955178 1.0406774,3.8985057 0.53043294,3.9999998 0,4 -0.53043294,3.9999998 -1.0406774,3.8985057 -1.5307336,3.6955178 -2.0207899,3.4925299 -2.4533544,3.2034996 -2.8284271,2.8284271 -3.2034996,2.4533544 -3.4925299,2.0207899 -3.6955178,1.5307336 -3.8985057,1.0406774 -3.9999998,0.53043294 -4,0 c 2e-7,-0.53043294 0.1014943,-1.0406774 0.3044822,-1.5307336 0.2029879,-0.4900563 0.4920182,-0.9226208 0.8670907,-1.2976935 0.3750727,-0.3750725 0.8076372,-0.6641028 1.2976935,-0.8670907 C -1.0406774,-3.8985057 -0.53043294,-3.9999998 0,-4 c 0.53043294,2e-7 1.0406774,0.1014943 1.5307336,0.3044822 0.4900563,0.2029879 0.9226208,0.4920182 1.2976935,0.8670907 0.3750725,0.3750727 0.6641028,0.8076372 0.8670907,1.2976935 C 3.8985057,-1.0406774 3.9999998,-0.53043294 4,0 Z"
       style="fill:none;stroke:#22668d;stroke-width:1;stroke-linecap:butt;stroke-linejoin:miter;stroke-miterlimit:10;stroke-dasharray:none;stroke-opacity:1"
       transform="translate(449.42998,394.46998)"
       clip-path="url(#clipPath62)" />
    <path
       id="path63"
       d="M 4,0 C 3.9999998,0.53043294 3.8985057,1.0406774 3.6955178,1.5307336 3.4925299,2.0207899 3.2034996,2.4533544 2.8284271,2.8284271 2.4533544,3.2034996 2.0207899,3.4925299 1.5307336,3.6955178 1.0406774,3.8985057 0.53043294,3.9999998 0,4 -0.53043294,3.9999998 -1.0406774,3.8985057 -1.5307336,3.6955178 -2.0207899,3.4925299 -2.4533544,3.2034996 -2.8284271,2.8284271 -3.2034996,2.4533544 -3.4925299,2.0207899 -3.6955178,1.5307336 -3.8985057,1.0406774 -3.9999998,0.53043294 -4,0 c 2e-7,-0.53043294 0.1014943,-1.0406774 0.3044822,-1.5307336 0.2029879,-0.4900563 0.4920182,-0.9226208 0.8670907,-1.2976935 0.3750727,-0.3750725 0.8076372,-0.6641028 1.2976935,-0.8670907 C -1.0406774,-3.8985057 -0.53043294,-3.9999998 0,-4 c 0.53043294,2e-7 1.0406774,0.1014943 1.5307336,0.3044822 0.4900563,0.2029879 0.9226208,0.4920182 1.2976935,0.8670907 0.3750725,0.3750727 0.6641028,0.8076372 0.8670907,1.2976935 C 3.8985057,-1.0406774 3.9999998,-0.53043294 4,0 Z"
       style="fill:none;stroke:#22668d;stroke-width:1;stroke-linecap:butt;stroke-linejoin:miter;stroke-miterlimit:10;stroke-dasharray:none;stroke-opacity:1"
       transform="translate(478.60998,398.25998)"
       clip-path="url(#clipPath64)" />
    <path
       id="path65"
       d="M 4,0 C 3.9999998,0.53043294 3.8985057,1.0406774 3.6955178,1.5307336 3.4925299,2.0207899 3.2034996,2.4533544 2.8284271,2.8284271 2.4533544,3.2034996 2.0207899,3.4925299 1.5307336,3.6955178 1.0406774,3.8985057 0.53043294,3.9999998 0,4 -0.53043294,3.9999998 -1.0406774,3.8985057 -1.5307336,3.6955178 -2.0207899,3.4925299 -2.4533544,3.2034996 -2.8284271,2.8284271 -3.2034996,2.4533544 -3.4925299,2.0207899 -3.6955178,1.5307336 -3.8985057,1.0406774 -3.9999998,0.53043294 -4,0 c 2e-7,-0.53043294 0.1014943,-1.0406774 0.3044822,-1.5307336 0.2029879,-0.4900563 0.4920182,-0.9226208 0.8670907,-1.2976935 0.3750727,-0.3750725 0.8076372,-0.6641028 1.2976935,-0.8670907 C -1.0406774,-3.8985057 -0.53043294,-3.9999998 0,-4 c 0.53043294,2e-7 1.0406774,0.1014943 1.5307336,0.3044822 0.4900563,0.2029879 0.9226208,0.4920182 1.2976935,0.8670907 0.3750725,0.3750727 0.6641028,0.8076372 0.8670907,1.2976935 C 3.8985057,-1.0406774 3.9999998,-0.53043294 4,0 Z"
       style="fill:none;stroke:#22668d;stroke-width:1;stroke-linecap:butt;stroke-linejoin:miter;stroke-miterlimit:10;stroke-dasharray:none;stroke-opacity:1"
       transform="translate(507.77998,401.93998)"
       clip-path="url(#clipPath66)" />
    <path
       id="path67"
       d="M 4,0 C 3.9999998,0.53043294 3.8985057,1.0406774 3.6955178,1.5307336 3.4925299,2.0207899 3.2034996,2.4533544 2.8284271,2.8284271 2.4533544,3.2034996 2.0207899,3.4925299 1.5307336,3.6955178 1.0406774,3.8985057 0.53043294,3.9999998 0,4 -0.53043294,3.9999998 -1.0406774,3.8985057 -1.5307336,3.6955178 -2.0207899,3.4925299 -2.4533544,3.2034996 -2.8284271,2.8284271 -3.2034996,2.4533544 -3.4925299,2.0207899 -3.6955178,1.5307336 -3.8985057,1.0406774 -3.9999998,0.53043294 -4,0 c 2e-7,-0.53043294 0.1014943,-1.0406774 0.3044822,-1.5307336 0.2029879,-0.4900563 0.4920182,-0.9226208 0.8670907,-1.2976935 0.3750727,-0.3750725 0.8076372,-0.6641028 1.2976935,-0.8670907 C -1.0406774,-3.8985057 -0.53043294,-3.9999998 0,-4 c 0.53043294,2e-7 1.0406774,0.1014943 1.5307336,0.3044822 0.4900563,0.2029879 0.9226208,0.4920182 1.2976935,0.8670907 0.3750725,0.3750727 0.6641028,0.8076372 0.8670907,1.2976935 C 3.8985057,-1.0406774 3.9999998,-0.53043294 4,0 Z"
       style="fill:none;stroke:#22668d;stroke-width:1;stroke-linecap:butt;stroke-linejoin:miter;stroke-miterlimit:10;stroke-dasharray:none;stroke-opacity:1"
       transform="translate(536.95998,405.45998)"
       clip-path="url(#clipPath68)" />
    <path
       id="path69"
       d="M 4,0 C 3.9999998,0.53043294 3.8985057,1.0406774 3.6955178,1.5307336 3.4925299,2.0207899 3.2034996,2.4533544 2.8284271,2.8284271 2.4533544,3.2034996 2.0207899,3.4925299 1.5307336,3.6955178 1.0406774,3.8985057 0.53043294,3.9999998 0,4 -0.53043294,3.9999998 -1.0406774,3.8985057 -1.5307336,3.6955178 -2.0207899,3.4925299 -2.4533544,3.2034996 -2.8284271,2.8284271 -3.2034996,2.4533544 -3.4925299,2.0207899 -3.6955178,1.5307336 -3.8985057,1.0406774 -3.9999998,0.53043294 -4,0 c 2e-7,-0.53043294 0.1014943,-1.0406774 0.3044822,-1.5307336 0.2029879,-0.4900563 0.4920182,-0.9226208 0.8670907,-1.2976935 0.3750727,-0.3750725 0.8076372,-0.6641028 1.2976935,-0.8670907 C -1.0406774,-3.8985057 -0.53043294,-3.9999998 0,-4 c 0.53043294,2e-7 1.0406774,0.1014943 1.5307336,0.3044822 0.4900563,0.2029879 0.9226208,0.4920182 1.2976935,0.8670907 0.3750725,0.3750727 0.6641028,0.8076372 0.8670907,1.2976935 C 3.8985057,-1.0406774 3.9999998,-0.53043294 4,0 Z"
       style="fill:none;stroke:#22668d;stroke-width:1;stroke-linecap:butt;stroke-linejoin:miter;stroke-miterlimit:10;stroke-dasharray:none;stroke-opacity:1"
       transform="translate(566.12999,409.06998)"
       clip-path="url(#clipPath70)" />
    <path
       id="path71"
       d="M 4,0 C 3.9999998,0.53043294 3.8985057,1.0406774 3.6955178,1.5307336 3.4925299,2.0207899 3.2034996,2.4533544 2.8284271,2.8284271 2.4533544,3.2034996 2.0207899,3.4925299 1.5307336,3.6955178 1.0406774,3.8985057 0.53043294,3.9999998 0,4 -0.53043294,3.9999998 -1.0406774,3.8985057 -1.5307336,3.6955178 -2.0207899,3.4925299 -2.4533544,3.2034996 -2.8284271,2.8284271 -3.2034996,2.4533544 -3.4925299,2.0207899 -3.6955178,1.5307336 -3.8985057,1.0406774 -3.9999998,0.53043294 -4,0 c 2e-7,-0.53043294 0.1014943,-1.0406774 0.3044822,-1.5307336 0.2029879,-0.4900563 0.4920182,-0.9226208 0.8670907,-1.2976935 0.3750727,-0.3750725 0.8076372,-0.6641028 1.2976935,-0.8670907 C -1.0406774,-3.8985057 -0.53043294,-3.9999998 0,-4 c 0.53043294,2e-7 1.0406774,0.1014943 1.5307336,0.3044822 0.4900563,0.2029879 0.9226208,0.4920182 1.2976935,0.8670907 0.3750725,0.3750727 0.6641028,0.8076372 0.8670907,1.2976935 C 3.8985057,-1.0406774 3.9999998,-0.53043294 4,0 Z"
       style="fill:none;stroke:#22668d;stroke-width:1;stroke-linecap:butt;stroke-linejoin:miter;stroke-miterlimit:10;stroke-dasharray:none;stroke-opacity:1"
       transform="translate(595.29998,412.13998)"
       clip-path="url(#clipPath72)" />
    <path
       id="path73"
       d="M 4,0 C 3.9999998,0.53043294 3.8985057,1.0406774 3.6955178,1.5307336 3.4925299,2.0207899 3.2034996,2.4533544 2.8284271,2.8284271 2.4533544,3.2034996 2.0207899,3.4925299 1.5307336,3.6955178 1.0406774,3.8985057 0.53043294,3.9999998 0,4 -0.53043294,3.9999998 -1.0406774,3.8985057 -1.5307336,3.6955178 -2.0207899,3.4925299 -2.4533544,3.2034996 -2.8284271,2.8284271 -3.2034996,2.4533544 -3.4925299,2.0207899 -3.6955178,1.5307336 -3.8985057,1.0406774 -3.9999998,0.53043294 -4,0 c 2e-7,-0.53043294 0.1014943,-1.0406774 0.3044822,-1.5307336 0.2029879,-0.4900563 0.4920182,-0.9226208 0.8670907,-1.2976935 0.3750727,-0.3750725 0.8076372,-0.6641028 1.2976935,-0.8670907 C -1.0406774,-3.8985057 -0.53043294,-3.9999998 0,-4 c 0.53043294,2e-7 1.0406774,0.1014943 1.5307336,0.3044822 0.4900563,0.2029879 0.9226208,0.4920182 1.2976935,0.8670907 0.3750725,0.3750727 0.6641028,0.8076372 0.8670907,1.2976935 C 3.8985057,-1.0406774 3.9999998,-0.53043294 4,0 Z"
       style="fill:none;stroke:#22668d;stroke-width:1;stroke-linecap:butt;stroke-linejoin:miter;stroke-miterlimit:10;stroke-dasharray:none;stroke-opacity:1"
       transform="translate(624.47997,415.19998)"
       clip-path="url(#clipPath74)" />
    <path
       id="path75"
       d="M 4,0 C 3.9999998,0.53043294 3.8985057,1.0406774 3.6955178,1.5307336 3.4925299,2.0207899 3.2034996,2.4533544 2.8284271,2.8284271 2.4533544,3.2034996 2.0207899,3.4925299 1.5307336,3.6955178 1.0406774,3.8985057 0.53043294,3.9999998 0,4 -0.53043294,3.9999998 -1.0406774,3.8985057 -1.5307336,3.6955178 -2.0207899,3.4925299 -2.4533544,3.2034996 -2.8284271,2.8284271 -3.2034996,2.4533544 -3.4925299,2.0207899 -3.6955178,1.5307336 -3.8985057,1.0406774 -3.9999998,0.53043294 -4,0 c 2e-7,-0.53043294 0.1014943,-1.0406774 0.3044822,-1.5307336 0.2029879,-0.4900563 0.4920182,-0.9226208 0.8670907,-1.2976935 0.3750727,-0.3750725 0.8076372,-0.6641028 1.2976935,-0.8670907 C -1.0406774,-3.8985057 -0.53043294,-3.9999998 0,-4 c 0.53043294,2e-7 1.0406774,0.1014943 1.5307336,0.3044822 0.4900563,0.2029879 0.9226208,0.4920182 1.2976935,0.8670907 0.3750725,0.3750727 0.6641028,0.8076372 0.8670907,1.2976935 C 3.8985057,-1.0406774 3.9999998,-0.53043294 4,0 Z"
       style="fill:none;stroke:#22668d;stroke-width:1;stroke-linecap:butt;stroke-linejoin:miter;stroke-miterlimit:10;stroke-dasharray:none;stroke-opacity:1"
       transform="translate(653.65002,418.29998)"
       clip-path="url(#clipPath76)" />
    <path
       id="path77"
       d="m 36.349998,195.25999 29.169999,56.66001 29.18,20.58 29.170003,15.81 29.16999,7.63 29.18001,4.85999 29.17,12.34002 29.18001,8.62998 29.16998,2.5 29.17001,4.32001 29.18,0.95001 29.17001,2.64999 29.16998,-1.19 29.18,-2.95999 29.17001,-1.05002 29.17999,3.43002 29.17001,-1.32 29.16999,-4.48001 29.17999,3.55001 29.17004,-7.45001"
       style="fill:none;stroke:#ed6a5e;stroke-width:1;stroke-linecap:butt;stroke-linejoin:miter;stroke-miterlimit:10;stroke-dasharray:none;stroke-opacity:1"
       transform="translate(62.999997,29.999999)"
       clip-path="url(#clipPath78)" />
    <path
       id="path79"
       d="M 0,2.26 2.26,4.52 4.52,2.26 2.26,0 4.52,-2.26 2.26,-4.52 0,-2.26 -2.26,-4.52 -4.52,-2.26 -2.26,0 -4.52,2.26 -2.26,4.52 Z"
       style="fill:none;stroke:#ed6a5e;stroke-width:1;stroke-linecap:butt;stroke-linejoin:miter;stroke-miterlimit:10;stroke-dasharray:none;stroke-opacity:1"
       transform="translate(99.349996,225.25999)"
       clip-path="url(#clipPath80)" />
    <path
       id="path81"
       d="M 0,2.26 2.26,4.52 4.52,2.26 2.26,0 4.52,-2.26 2.26,-4.52 0,-2.26 -2.26,-4.52 -4.52,-2.26 -2.26,0 -4.52,2.26 -2.26,4.52 Z"
       style="fill:none;stroke:#ed6a5e;stroke-width:1;stroke-linecap:butt;stroke-linejoin:miter;stroke-miterlimit:10;stroke-dasharray:none;stroke-opacity:1"
       transform="translate(128.51999,281.91999)"
       clip-path="url(#clipPath82)" />
    <path
       id="path83"
       d="M 0,2.26 2.26,4.52 4.52,2.26 2.26,0 4.52,-2.26 2.26,-4.52 0,-2.26 -2.26,-4.52 -4.52,-2.26 -2.26,0 -4.52,2.26 -2.26,4.52 Z"
       style="fill:none;stroke:#ed6a5e;stroke-width:1;stroke-linecap:butt;stroke-linejoin:miter;stroke-miterlimit:10;stroke-dasharray:none;stroke-opacity:1"
       transform="translate(157.69999,302.49999)"
       clip-path="url(#clipPath84)" />
    <path
       id="path85"
       d="M 0,2.26 2.26,4.52 4.52,2.26 2.26,0 4.52,-2.26 2.26,-4.52 0,-2.26 -2.26,-4.52 -4.52,-2.26 -2.26,0 -4.52,2.26 -2.26,4.52 Z"
       style="fill:none;stroke:#ed6a5e;stroke-width:1;stroke-linecap:butt;stroke-linejoin:miter;stroke-miterlimit:10;stroke-dasharray:none;stroke-opacity:1"
       transform="translate(186.86999,318.30999)"
       clip-path="url(#clipPath86)" />
    <path
       id="path87"
       d="M 0,2.26 2.26,4.52 4.52,2.26 2.26,0 4.52,-2.26 2.26,-4.52 0,-2.26 -2.26,-4.52 -4.52,-2.26 -2.26,0 -4.52,2.26 -2.26,4.52 Z"
       style="fill:none;stroke:#ed6a5e;stroke-width:1;stroke-linecap:butt;stroke-linejoin:miter;stroke-miterlimit:10;stroke-dasharray:none;stroke-opacity:1"
       transform="translate(216.03999,325.93999)"
       clip-path="url(#clipPath88)" />
    <path
       id="path89"
       d="M 0,2.26 2.26,4.52 4.52,2.26 2.26,0 4.52,-2.26 2.26,-4.52 0,-2.26 -2.26,-4.52 -4.52,-2.26 -2.26,0 -4.52,2.26 -2.26,4.52 Z"
       style="fill:none;stroke:#ed6a5e;stroke-width:1;stroke-linecap:butt;stroke-linejoin:miter;stroke-miterlimit:10;stroke-dasharray:none;stroke-opacity:1"
       transform="translate(245.21999,330.79999)"
       clip-path="url(#clipPath90)" />
    <path
       id="path91"
       d="M 0,2.26 2.26,4.52 4.52,2.26 2.26,0 4.52,-2.26 2.26,-4.52 0,-2.26 -2.26,-4.52 -4.52,-2.26 -2.26,0 -4.52,2.26 -2.26,4.52 Z"
       style="fill:none;stroke:#ed6a5e;stroke-width:1;stroke-linecap:butt;stroke-linejoin:miter;stroke-miterlimit:10;stroke-dasharray:none;stroke-opacity:1"
       transform="translate(274.38999,343.13999)"
       clip-path="url(#clipPath92)" />
    <path
       id="path93"
       d="M 0,2.26 2.26,4.52 4.52,2.26 2.26,0 4.52,-2.26 2.26,-4.52 0,-2.26 -2.26,-4.52 -4.52,-2.26 -2.26,0 -4.52,2.26 -2.26,4.52 Z"
       style="fill:none;stroke:#ed6a5e;stroke-width:1;stroke-linecap:butt;stroke-linejoin:miter;stroke-miterlimit:10;stroke-dasharray:none;stroke-opacity:1"
       transform="translate(303.56999,351.76999)"
       clip-path="url(#clipPath94)" />
    <path
       id="path95"
       d="M 0,2.26 2.26,4.52 4.52,2.26 2.26,0 4.52,-2.26 2.26,-4.52 0,-2.26 -2.26,-4.52 -4.52,-2.26 -2.26,0 -4.52,2.26 -2.26,4.52 Z"
       style="fill:none;stroke:#ed6a5e;stroke-width:1;stroke-linecap:butt;stroke-linejoin:miter;stroke-miterlimit:10;stroke-dasharray:none;stroke-opacity:1"
       transform="translate(332.73999,354.26999)"
       clip-path="url(#clipPath96)" />
    <path
       id="path97"
       d="M 0,2.26 2.26,4.52 4.52,2.26 2.26,0 4.52,-2.26 2.26,-4.52 0,-2.26 -2.26,-4.52 -4.52,-2.26 -2.26,0 -4.52,2.26 -2.26,4.52 Z"
       style="fill:none;stroke:#ed6a5e;stroke-width:1;stroke-linecap:butt;stroke-linejoin:miter;stroke-miterlimit:10;stroke-dasharray:none;stroke-opacity:1"
       transform="translate(361.90998,358.58999)"
       clip-path="url(#clipPath98)" />
    <path
       id="path99"
       d="M 0,2.26 2.26,4.52 4.52,2.26 2.26,0 4.52,-2.26 2.26,-4.52 0,-2.26 -2.26,-4.52 -4.52,-2.26 -2.26,0 -4.52,2.26 -2.26,4.52 Z"
       style="fill:none;stroke:#ed6a5e;stroke-width:1;stroke-linecap:butt;stroke-linejoin:miter;stroke-miterlimit:10;stroke-dasharray:none;stroke-opacity:1"
       transform="translate(391.08998,359.53999)"
       clip-path="url(#clipPath100)" />
    <path
       id="path101"
       d="M 0,2.26 2.26,4.52 4.52,2.26 2.26,0 4.52,-2.26 2.26,-4.52 0,-2.26 -2.26,-4.52 -4.52,-2.26 -2.26,0 -4.52,2.26 -2.26,4.52 Z"
       style="fill:none;stroke:#ed6a5e;stroke-width:1;stroke-linecap:butt;stroke-linejoin:miter;stroke-miterlimit:10;stroke-dasharray:none;stroke-opacity:1"
       transform="translate(420.25998,362.18998)"
       clip-path="url(#clipPath102)" />
    <path
       id="path103"
       d="M 0,2.26 2.26,4.52 4.52,2.26 2.26,0 4.52,-2.26 2.26,-4.52 0,-2.26 -2.26,-4.52 -4.52,-2.26 -2.26,0 -4.52,2.26 -2.26,4.52 Z"
       style="fill:none;stroke:#ed6a5e;stroke-width:1;stroke-linecap:butt;stroke-linejoin:miter;stroke-miterlimit:10;stroke-dasharray:none;stroke-opacity:1"
       transform="translate(449.42998,360.99998)"
       clip-path="url(#clipPath104)" />
    <path
       id="path105"
       d="M 0,2.26 2.26,4.52 4.52,2.26 2.26,0 4.52,-2.26 2.26,-4.52 0,-2.26 -2.26,-4.52 -4.52,-2.26 -2.26,0 -4.52,2.26 -2.26,4.52 Z"
       style="fill:none;stroke:#ed6a5e;stroke-width:1;stroke-linecap:butt;stroke-linejoin:miter;stroke-miterlimit:10;stroke-dasharray:none;stroke-opacity:1"
       transform="translate(478.60998,358.03999)"
       clip-path="url(#clipPath106)" />
    <path
       id="path107"
       d="M 0,2.26 2.26,4.52 4.52,2.26 2.26,0 4.52,-2.26 2.26,-4.52 0,-2.26 -2.26,-4.52 -4.52,-2.26 -2.26,0 -4.52,2.26 -2.26,4.52 Z"
       style="fill:none;stroke:#ed6a5e;stroke-width:1;stroke-linecap:butt;stroke-linejoin:miter;stroke-miterlimit:10;stroke-dasharray:none;stroke-opacity:1"
       transform="translate(507.77998,356.98999)"
       clip-path="url(#clipPath108)" />
    <path
       id="path109"
       d="M 0,2.26 2.26,4.52 4.52,2.26 2.26,0 4.52,-2.26 2.26,-4.52 0,-2.26 -2.26,-4.52 -4.52,-2.26 -2.26,0 -4.52,2.26 -2.26,4.52 Z"
       style="fill:none;stroke:#ed6a5e;stroke-width:1;stroke-linecap:butt;stroke-linejoin:miter;stroke-miterlimit:10;stroke-dasharray:none;stroke-opacity:1"
       transform="translate(536.95998,360.41998)"
       clip-path="url(#clipPath110)" />
    <path
       id="path111"
       d="M 0,2.26 2.26,4.52 4.52,2.26 2.26,0 4.52,-2.26 2.26,-4.52 0,-2.26 -2.26,-4.52 -4.52,-2.26 -2.26,0 -4.52,2.26 -2.26,4.52 Z"
       style="fill:none;stroke:#ed6a5e;stroke-width:1;stroke-linecap:butt;stroke-linejoin:miter;stroke-miterlimit:10;stroke-dasharray:none;stroke-opacity:1"
       transform="translate(566.12999,359.09999)"
       clip-path="url(#clipPath112)" />
    <path
       id="path113"
       d="M 0,2.26 2.26,4.52 4.52,2.26 2.26,0 4.52,-2.26 2.26,-4.52 0,-2.26 -2.26,-4.52 -4.52,-2.26 -2.26,0 -4.52,2.26 -2.26,4.52 Z"
       style="fill:none;stroke:#ed6a5e;stroke-width:1;stroke-linecap:butt;stroke-linejoin:miter;stroke-miterlimit:10;stroke-dasharray:none;stroke-opacity:1"
       transform="translate(595.29998,354.61999)"
       clip-path="url(#clipPath114)" />
    <path
       id="path115"
       d="M 0,2.26 2.26,4.52 4.52,2.26 2.26,0 4.52,-2.26 2.26,-4.52 0,-2.26 -2.26,-4.52 -4.52,-2.26 -2.26,0 -4.52,2.26 -2.26,4.52 Z"
       style="fill:none;stroke:#ed6a5e;stroke-width:1;stroke-linecap:butt;stroke-linejoin:miter;stroke-miterlimit:10;stroke-dasharray:none;stroke-opacity:1"
       transform="translate(624.47997,358.16999)"
       clip-path="url(#clipPath116)" />
    <path
       id="path117"
       d="M 0,2.26 2.26,4.52 4.52,2.26 2.26,0 4.52,-2.26 2.26,-4.52 0,-2.26 -2.26,-4.52 -4.52,-2.26 -2.26,0 -4.52,2.26 -2.26,4.52 Z"
       style="fill:none;stroke:#ed6a5e;stroke-width:1;stroke-linecap:butt;stroke-linejoin:miter;stroke-miterlimit:10;stroke-dasharray:none;stroke-opacity:1"
       transform="translate(653.65002,350.71999)"
       clip-path="url(#clipPath118)" />
    <text
       id="text118"
       xml:space="preserve"
       transform="translate(95.850011,458.99998)"
       clip-path="url(#clipPath119)"><tspan
         style="font-variant:normal;font-weight:500;font-size:14px;font-family:'CMU Serif';writing-mode:lr-tb;fill:#2a3f5f;fill-opacity:1;fill-rule:nonzero;stroke:none"
         x="0"
         y="0"
         id="tspan118">0</tspan></text>
    <text
       id="text119"
       xml:space="preserve"
       transform="translate(241.72001,458.99998)"
       clip-path="url(#clipPath120)"><tspan
         style="font-variant:normal;font-weight:500;font-size:14px;font-family:'CMU Serif';writing-mode:lr-tb;fill:#2a3f5f;fill-opacity:1;fill-rule:nonzero;stroke:none"
         x="0"
         y="0"
         id="tspan119">5</tspan></text>
    <text
       id="text120"
       xml:space="preserve"
       transform="translate(384.09001,458.99998)"
       clip-path="url(#clipPath121)"><tspan
         style="font-variant:normal;font-weight:500;font-size:14px;font-family:'CMU Serif';writing-mode:lr-tb;fill:#2a3f5f;fill-opacity:1;fill-rule:nonzero;stroke:none"
         x="0 6.9999695"
         y="0"
         sodipodi:role="line"
         id="tspan120">10</tspan></text>
    <text
       id="text121"
       xml:space="preserve"
       transform="translate(529.96004,458.99998)"
       clip-path="url(#clipPath122)"><tspan
         style="font-variant:normal;font-weight:500;font-size:14px;font-family:'CMU Serif';writing-mode:lr-tb;fill:#2a3f5f;fill-opacity:1;fill-rule:nonzero;stroke:none"
         x="0 6.9999695"
         y="0"
         sodipodi:role="line"
         id="tspan121">15</tspan></text>
    <text
       id="text122"
       xml:space="preserve"
       transform="translate(675.82,458.99998)"
       clip-path="url(#clipPath123)"><tspan
         style="font-variant:normal;font-weight:500;font-size:14px;font-family:'CMU Serif';writing-mode:lr-tb;fill:#2a3f5f;fill-opacity:1;fill-rule:nonzero;stroke:none"
         x="0 6.9999695"
         y="0"
         sodipodi:role="line"
         id="tspan122">20</tspan></text>
    <text
       id="text123"
       xml:space="preserve"
       transform="translate(44.108076,431.22998)"
       clip-path="url(#clipPath124)"><tspan
         style="font-variant:normal;font-weight:500;font-size:14px;font-family:'CMU Serif';writing-mode:lr-tb;fill:#2a3f5f;fill-opacity:1;fill-rule:nonzero;stroke:none"
         x="0 6.9999695 10.891953"
         y="0"
         sodipodi:role="line"
         id="tspan123">1.1</tspan></text>
    <text
       id="text124"
       xml:space="preserve"
       transform="translate(37.108107,389.48998)"
       clip-path="url(#clipPath125)"><tspan
         style="font-variant:normal;font-weight:500;font-size:14px;font-family:'CMU Serif';writing-mode:lr-tb;fill:#2a3f5f;fill-opacity:1;fill-rule:nonzero;stroke:none"
         x="0 6.9999695 10.891953 17.891922"
         y="0"
         sodipodi:role="line"
         id="tspan124">1.15</tspan></text>
    <text
       id="text125"
       xml:space="preserve"
       transform="translate(44.108076,347.73999)"
       clip-path="url(#clipPath126)"><tspan
         style="font-variant:normal;font-weight:500;font-size:14px;font-family:'CMU Serif';writing-mode:lr-tb;fill:#2a3f5f;fill-opacity:1;fill-rule:nonzero;stroke:none"
         x="0 6.9999695 10.891953"
         y="0"
         sodipodi:role="line"
         id="tspan125">1.2</tspan></text>
    <text
       id="text126"
       xml:space="preserve"
       transform="translate(37.108107,305.98999)"
       clip-path="url(#clipPath127)"><tspan
         style="font-variant:normal;font-weight:500;font-size:14px;font-family:'CMU Serif';writing-mode:lr-tb;fill:#2a3f5f;fill-opacity:1;fill-rule:nonzero;stroke:none"
         x="0 6.9999695 10.891953 17.891922"
         y="0"
         sodipodi:role="line"
         id="tspan126">1.25</tspan></text>
    <text
       id="text127"
       xml:space="preserve"
       transform="translate(44.108076,264.24999)"
       clip-path="url(#clipPath128)"><tspan
         style="font-variant:normal;font-weight:500;font-size:14px;font-family:'CMU Serif';writing-mode:lr-tb;fill:#2a3f5f;fill-opacity:1;fill-rule:nonzero;stroke:none"
         x="0 6.9999695 10.891953"
         y="0"
         sodipodi:role="line"
         id="tspan127">1.3</tspan></text>
    <text
       id="text128"
       xml:space="preserve"
       transform="translate(37.108107,222.49999)"
       clip-path="url(#clipPath129)"><tspan
         style="font-variant:normal;font-weight:500;font-size:14px;font-family:'CMU Serif';writing-mode:lr-tb;fill:#2a3f5f;fill-opacity:1;fill-rule:nonzero;stroke:none"
         x="0 6.9999695 10.891953 17.891922"
         y="0"
         sodipodi:role="line"
         id="tspan128">1.35</tspan></text>
    <text
       id="text129"
       xml:space="preserve"
       transform="translate(44.108076,180.75999)"
       clip-path="url(#clipPath130)"><tspan
         style="font-variant:normal;font-weight:500;font-size:14px;font-family:'CMU Serif';writing-mode:lr-tb;fill:#2a3f5f;fill-opacity:1;fill-rule:nonzero;stroke:none"
         x="0 6.9999695 10.891953"
         y="0"
         sodipodi:role="line"
         id="tspan129">1.4</tspan></text>
    <text
       id="text130"
       xml:space="preserve"
       transform="translate(37.108107,139.00999)"
       clip-path="url(#clipPath131)"><tspan
         style="font-variant:normal;font-weight:500;font-size:14px;font-family:'CMU Serif';writing-mode:lr-tb;fill:#2a3f5f;fill-opacity:1;fill-rule:nonzero;stroke:none"
         x="0 6.9999695 10.891953 17.891922"
         y="0"
         sodipodi:role="line"
         id="tspan130">1.45</tspan></text>
    <text
       id="text131"
       xml:space="preserve"
       transform="translate(44.108076,97.259996)"
       clip-path="url(#clipPath132)"><tspan
         style="font-variant:normal;font-weight:500;font-size:14px;font-family:'CMU Serif';writing-mode:lr-tb;fill:#2a3f5f;fill-opacity:1;fill-rule:nonzero;stroke:none"
         x="0 6.9999695 10.891953"
         y="0"
         sodipodi:role="line"
         id="tspan131">1.5</tspan></text>
    <text
       id="text132"
       xml:space="preserve"
       transform="translate(37.108107,55.519998)"
       clip-path="url(#clipPath133)"><tspan
         style="font-variant:normal;font-weight:500;font-size:14px;font-family:'CMU Serif';writing-mode:lr-tb;fill:#2a3f5f;fill-opacity:1;fill-rule:nonzero;stroke:none"
         x="0 6.9999695 10.891953 17.891922"
         y="0"
         sodipodi:role="line"
         id="tspan132">1.55</tspan></text>
    <text
       id="text133"
       xml:space="preserve"
       transform="translate(573.24998,51.059998)"
       clip-path="url(#clipPath134)"><tspan
         style="font-variant:normal;font-weight:500;font-size:14px;font-family:'CMU Serif';writing-mode:lr-tb;fill:#2a3f5f;fill-opacity:1;fill-rule:nonzero;stroke:none"
         x="0 8.9459534 14.419937 21.419907 25.297897 33.067871 36.945862 44.715836 51.715805 56.377792 65.127762 72.127731 77.643707"
         y="0"
         sodipodi:role="line"
         id="tspan133">Training Loss</tspan></text>
    <path
       id="path135"
       d="M 5,0 H 35"
       style="fill:none;stroke:#22668d;stroke-width:1;stroke-linecap:butt;stroke-linejoin:miter;stroke-miterlimit:10;stroke-dasharray:none;stroke-opacity:1"
       transform="translate(533.24998,45.599998)"
       clip-path="url(#clipPath136)" />
    <path
       id="path137"
       d="M 4,0 C 3.9999998,0.53043294 3.8985057,1.0406774 3.6955178,1.5307336 3.4925299,2.0207899 3.2034996,2.4533544 2.8284271,2.8284271 2.4533544,3.2034996 2.0207899,3.4925299 1.5307336,3.6955178 1.0406774,3.8985057 0.53043294,3.9999998 0,4 -0.53043294,3.9999998 -1.0406774,3.8985057 -1.5307336,3.6955178 -2.0207899,3.4925299 -2.4533544,3.2034996 -2.8284271,2.8284271 -3.2034996,2.4533544 -3.4925299,2.0207899 -3.6955178,1.5307336 -3.8985057,1.0406774 -3.9999998,0.53043294 -4,0 c 2e-7,-0.53043294 0.1014943,-1.0406774 0.3044822,-1.5307336 0.2029879,-0.4900563 0.4920182,-0.9226208 0.8670907,-1.2976935 0.3750727,-0.3750725 0.8076372,-0.6641028 1.2976935,-0.8670907 C -1.0406774,-3.8985057 -0.53043294,-3.9999998 0,-4 c 0.53043294,2e-7 1.0406774,0.1014943 1.5307336,0.3044822 0.4900563,0.2029879 0.9226208,0.4920182 1.2976935,0.8670907 0.3750725,0.3750727 0.6641028,0.8076372 0.8670907,1.2976935 C 3.8985057,-1.0406774 3.9999998,-0.53043294 4,0 Z"
       style="fill:none;stroke:#22668d;stroke-width:1;stroke-linecap:butt;stroke-linejoin:miter;stroke-miterlimit:10;stroke-dasharray:none;stroke-opacity:1"
       transform="translate(553.24999,45.599998)"
       clip-path="url(#clipPath138)" />
    <text
       id="text138"
       xml:space="preserve"
       transform="translate(573.24998,72.259997)"
       clip-path="url(#clipPath139)"><tspan
         style="font-variant:normal;font-weight:500;font-size:14px;font-family:'CMU Serif';writing-mode:lr-tb;fill:#2a3f5f;fill-opacity:1;fill-rule:nonzero;stroke:none"
         x="0 9.3379517 16.337921 20.215912 24.093903 31.863876 38.863846 44.295822 48.173813 55.173782 62.943756 67.605743 76.355713 83.355682 88.871658"
         y="0"
         sodipodi:role="line"
         id="tspan138">Validation Loss</tspan></text>
    <path
       id="path140"
       d="M 5,0 H 35"
       style="fill:none;stroke:#ed6a5e;stroke-width:1;stroke-linecap:butt;stroke-linejoin:miter;stroke-miterlimit:10;stroke-dasharray:none;stroke-opacity:1"
       transform="translate(533.24998,66.799997)"
       clip-path="url(#clipPath141)" />
    <path
       id="path142"
       d="M 0,2.26 2.26,4.52 4.52,2.26 2.26,0 4.52,-2.26 2.26,-4.52 0,-2.26 -2.26,-4.52 -4.52,-2.26 -2.26,0 -4.52,2.26 -2.26,4.52 Z"
       style="fill:none;stroke:#ed6a5e;stroke-width:1;stroke-linecap:butt;stroke-linejoin:miter;stroke-miterlimit:10;stroke-dasharray:none;stroke-opacity:1"
       transform="translate(553.24999,66.799997)"
       clip-path="url(#clipPath143)" />
    <text
       id="text143"
       xml:space="preserve"
       transform="translate(34.999999,14.999999)"
       clip-path="url(#clipPath144)"><tspan
         style="font-variant:normal;font-weight:500;font-size:20px;font-family:'CMU Serif';writing-mode:lr-tb;fill:#2a3f5f;fill-opacity:1;fill-rule:nonzero;stroke:none"
         x="0 12.779984 20.599976 30.59996 36.139954 47.239944 52.779938 63.879929 73.879913 80.539902 90.539886 101.63988 112.73987 119.39986 132.73984 142.73982 148.27982 153.81981 164.9198 174.91978 182.67978 188.21977 198.21976 209.31975 215.97974 228.47972 238.47971 246.3597 254.23969 260.89966 266.99963 276.99963 284.81964 291.47961 306.73959 315.61957 324.49957 335.59955 350.31952 363.3595 374.45947 384.45947 398.89948 405.55945 411.09943 422.1994 428.85938 439.95935 449.95935 456.05933 463.25931 477.13928 487.13928 494.95929"
         y="0"
         sodipodi:role="line"
         id="tspan143">Training and Validation Loss for DeepRFSoC in Software</tspan></text>
    <text
       id="text144"
       xml:space="preserve"
       transform="translate(349.67406,489.39997)"
       clip-path="url(#clipPath145)"><tspan
         style="font-variant:normal;font-weight:500;font-size:17px;font-family:'CMU Serif';writing-mode:lr-tb;fill:#2a3f5f;fill-opacity:1;fill-rule:nonzero;stroke:none"
         x="0 11.559967 21.470947 30.44693 37.518906 46.953888"
         y="0"
         sodipodi:role="line"
         id="tspan144">Epochs</tspan></text>
    <text
       id="text145"
       xml:space="preserve"
       transform="rotate(-90,134.9521,118.30836)"
       clip-path="url(#clipPath146)"><tspan
         style="font-variant:normal;font-weight:500;font-size:17px;font-family:'CMU Serif';writing-mode:lr-tb;fill:#2a3f5f;fill-opacity:1;fill-rule:nonzero;stroke:none"
         x="0 10.624969 19.124954 25.822937"
         y="0"
         sodipodi:role="line"
         id="tspan145">Loss</tspan></text>
  </g>
</svg>
